<svg version="1.2" xmlns="http://www.w3.org/2000/svg" viewBox="0 0 1186 210" width="1186" height="210"><defs><linearGradient id="P" gradientUnits="userSpaceOnUse"/><linearGradient id="g1" x2="1" href="#P" gradientTransform="matrix(-62.447,-197.424,197.424,-62.447,479.249,186.257)"><stop stop-color="#f7fcf8" stop-opacity=".3"/><stop offset=".55" stop-color="#fff" stop-opacity=".71"/><stop offset=".8" stop-color="#fff2a4" stop-opacity=".71"/></linearGradient></defs><style>.a{fill:#a3d0b0}.b{fill:url(#g1)}.c{fill:#d06239}.d{fill:#2d502f}</style><path class="a" d="m453.5 206c-55.6 0-100.5-44.9-100.5-100.5 0-55.6 44.9-100.5 100.5-100.5 55.6 0 100.5 44.9 100.5 100.5 0 55.6-44.9 100.5-100.5 100.5z"/><path class="b" d="m453.8 208.9c-57 0-103.1-46.1-103.1-103.1 0-57 46.1-103.1 103.1-103.1 57 0 103.1 46.1 103.1 103.1 0 57-46.1 103.1-103.1 103.1z"/><path fill-rule="evenodd" class="c" d="m462.7 1.2q20.6 2 38.3 11.2c25.9 13.4 45.3 37.2 53 65.1 1.5 5.6 2.6 11.1 3.4 18.8 0.3 3 0.3 15.8-0.1 19-1.7 15.9-6 29.4-13.4 42.2-4.8 8.3-9.9 15-16.9 22-5.1 5-9.6 8.8-15.1 12.5-14.8 10.1-30.8 15.8-49.2 17.8-2.9 0.3-16.4 0.3-19.2 0-3.5-0.4-7.9-1-10.9-1.7-17.9-3.5-34-11.4-48.1-23.5-2.7-2.3-9.2-8.9-11.5-11.7-12.7-15.2-20.7-32.9-23.5-51.9-0.9-6.1-1-7.7-1-15.5 0-7.2 0.1-8.5 0.7-13.3 1.4-11.4 4.7-22.3 9.9-32.8 3.8-7.9 8.2-14.6 13.6-21.1 18-21.5 44.2-35.1 71.7-37.2 1.2-0.1 2.6-0.2 3-0.2 1.9-0.2 12.8 0 15.3 0.3zm-12.3 6.5h-1.2c-0.7 0-1.8 0.1-2.5 0.1l-1.3 0.1-5.3 9.4-5.2 9.3 0.8 0.9c0.5 0.5 1 1.3 1.3 1.6 0.2 0.4 0.5 0.7 0.5 0.7 0.1 0 3-1.2 6.5-2.7l6.3-2.8 0.1-8.3zm7.3 0l-2.4-0.1 0.1 19c0.1 10.5 0.1 22.4 0.1 26.4v7.5l0.4-0.3c2.7-1.8 7-3.8 10-4.7 1.7-0.5 1.8-0.6 2-0.3 0.6 0.8 2.7 5.5 3.2 7.1 1.1 3.2 1.4 5 1.4 8.8 0 4.4-0.5 6.9-2.2 11-3.5 8.7-11.3 15.8-19.2 17.4-0.7 0.1-1.3 0.3-1.3 0.3-0.2 0.2 0.3 1.5 0.9 2.4 0.6 1.1 1.7 1.9 3.3 2.5 2.5 1.1 4.4 2.2 5.8 3.4 0.3 0.3 0.6 0.4 0.6 0.3 0.1-0.1 0.5-0.8 1-1.7 2.4-4.6 6.2-8.6 10.6-11.2 1.8-1 2.9-1.5 5.2-2.4l1.7-0.6 15.3-33.3c8.4-18.4 15.3-33.5 15.3-33.5-0.1-0.1-1.1-0.8-2.3-1.6-13.4-9-28.6-14.4-44.7-16-1.3-0.1-3.5-0.3-4.8-0.4zm-19.7 1.1c-6.4 1.1-14.6 3.1-14.6 3.7 0 0.2 2.2 9.5 2.5 10.4 0 0.2 0.4 0.3 1.5 0.5 0.8 0.1 1.8 0.3 2.3 0.4 0.6 0.2 0.8 0.2 0.9 0 0.2-0.2 8.5-14.9 8.5-15 0-0.1-0.5-0.1-1.1 0zm-22.3 6.3c-4.7 1.9-13.5 6.5-13.1 6.8 0 0.1 3 1.6 6.5 3.3l6.5 3.2 1.4-1.4c1-1 1.8-1.6 2.7-2 0.7-0.4 1.3-0.8 1.3-0.9 0-0.1-0.6-2.4-1.2-5.1-0.6-2.6-1.2-4.9-1.2-4.9 0-0.2-0.5-0.1-2.9 1zm-18.2 10c-0.1 0-2.8 1.9-3 2.1-0.3 0.2 8.1 15.5 8.4 15.5 0.2 0 2.5-0.8 5.2-1.7l4.8-1.8v-2.1c0-1.3 0-2.4 0.2-3.1 0.1-0.6 0.2-1.1 0.1-1.2 0-0.1-3.6-1.8-7.9-3.9-4.2-2.1-7.8-3.9-7.8-3.8zm28.9 3.3c-1.6 0-2 0-3 0.3-5.6 2-7.4 9-3.4 13.3 3.5 3.8 9.5 3.5 12.6-0.5 1.2-1.7 1.5-2.6 1.5-5 0-2.1 0-2.1-0.6-3.4-0.9-1.8-2.1-3.1-3.9-4-1.3-0.6-1.4-0.6-3.2-0.7zm87.3 0.5c-0.1 0-27.7 60-28.5 61.9l-0.2 0.5h4.5c4 0 4.9 0 6.6 0.3 1.1 0.2 2.3 0.5 2.6 0.6l0.7 0.2-0.1 2.6c-0.3 7.8-2.8 13.9-7.7 19-2.5 2.6-5.3 4.7-8.7 6.3-6.5 3.1-13.6 3.8-19.2 1.8-0.8-0.3-1.5-0.5-1.5-0.5 0 0.1-0.4 0.7-0.9 1.3-1.5 2.4-4 4.6-6.9 6.1-1.9 1.1-3 1.9-3.7 3-1.1 1.8-1.2 3.3-0.3 5.3 0.9 1.7 3.4 4.1 5.6 5.2 0.3 0.2 0.8 0.5 1.1 0.8l0.5 0.4 3-0.1c7.1-0.3 13.6-1 17.1-2.3 0 0 15.3-18.9 32.3-40l31.1-38.3-1-1.9c-3-6.1-7.7-13.1-12.5-18.9-2.5-2.9-8.6-9-11.5-11.4-1.3-1.1-2.3-2-2.4-1.9zm-63.3 9.4l-0.1-8.6-11.1 4.9 0.1 1c0 0.6-0.1 1.7-0.2 2.4 0 0.7-0.1 1.5-0.2 1.6 0 0.2 1.6 1.3 5.8 3.8 3.2 1.9 5.8 3.4 5.8 3.4 0 0 0-3.9-0.1-8.5zm-60-7.7c-0.2-0.2-2.3 1.7-4.8 4.1q-12.4 11.9-20 27l-1.5 3 31.7 37.6c17.4 20.7 31.6 37.7 31.6 37.8-0.1 0.1 0.1 0.2 0.3 0.3 0.3 0 1.2 0.2 2 0.4 2.7 0.7 6.2 1.4 9.1 1.8 1.6 0.2 7.2 0.8 7.3 0.7 0 0-0.3-0.4-0.7-0.9-0.8-1.1-1.8-3.2-2.2-4.6-0.1-0.6-0.3-1.7-0.4-2.4l-0.1-1.4h-1.5c-3.4 0-7.1-0.6-10.1-1.6-2.3-0.7-5.7-2.5-7.6-3.8-7.3-5.2-12.6-14.2-14.3-24-0.1-1-0.3-2.1-0.3-2.2 0-0.5 4.8-2 7.9-2.6 2.4-0.4 7.3-0.4 9.6 0.1 1 0.2 1.8 0.3 1.8 0.3 0 0-8.5-15.7-18.9-34.8-10.4-19.1-18.9-34.8-18.9-34.8zm25 13.8l-0.5-0.7-4.8 1.8c-2.9 1.1-4.8 1.8-4.8 1.9 0 0.1 2.3 4.4 5.1 9.5 3.7 6.8 5.1 9.2 5.1 9 0.1-0.1 1-4.1 2-8.9 1-4.7 1.9-8.7 1.9-8.8 0-0.2-0.2-0.4-0.7-0.7-0.4-0.3-1.2-1-1.8-1.5-0.6-0.6-1.2-1.3-1.5-1.6zm21.3 0c-0.1 0-0.7 0.6-1.3 1.3-0.6 0.6-1.5 1.4-1.8 1.6-0.4 0.3-0.7 0.5-0.7 0.6 0.3 0.6 10.8 24.1 10.9 24.4 0.3 0.4 0.3 0.4 0.9-0.7 0.8-1.6 2.8-4.1 4.4-5.8l1.5-1.5v-11.6l-6.9-4.1c-3.8-2.3-7-4.1-7-4.2zm-8.5 5.2h-2c-1.1 0-2 0.1-2 0.2 0 0-1.2 5.3-2.5 11.7l-2.5 11.6 16.3 30 1.7 1.1c2 1.4 2.8 2 4.7 3.8 4 3.9 7 9 8.1 13.8 0.2 0.8 0.3 1.4 0.3 1.4 0 0 0.6-0.2 1.2-0.5 2.9-1.6 5.2-4.4 5.2-6.6 0-0.4-0.2-1-0.4-1.4-0.6-1.3-1.7-2-5.8-3.9-1.8-0.9-3-1.7-4.4-3.2-2.1-2.2-3.1-4.7-3.5-8.3-0.1-1-0.4-2.7-0.7-3.9-0.9-3.5-1.2-5.5-1.1-9.1 0-2.4 0-3.6 0.3-5.1l0.4-2-6.7-14.8zm36 14c-0.1 0-0.9 0.4-1.7 0.9-8.2 4.4-13.2 10.6-14.5 18.1-0.5 2.7-0.3 8 0.3 10 0.2 0.4 0.7 0.4 2.3-0.1 5.8-1.6 11.5-7.6 13.8-14.4 0.9-2.6 1.1-3.9 1.1-7 0-2.9-0.1-3.7-0.8-6.1-0.2-0.8-0.5-1.4-0.5-1.4zm79.3 4.7c-0.1 0-13 15.8-28.7 35.2-15.7 19.3-28.5 35.2-28.5 35.3 0 0 0.3-0.1 0.6-0.1 1.3-0.4 8.1-1.7 10.8-2.1 5.6-0.8 11.7-1.3 17.1-1.3h3.2l16.2-19.4 16.2-19.4-0.2-2.3c-1-7.9-2.8-15.4-5.5-22.8-0.6-1.6-1.1-3-1.2-3.1zm-181.5 1.8c-0.1 0-0.5 0.9-0.9 2.1-3.5 9.6-5.3 19-5.8 29.6l-0.1 4 0.4 0.4c0.5 0.6 29.7 31.3 30.5 32.1l0.6 0.7 2-0.4c9.1-1.3 20.2-1.3 29.1 0 0.9 0.1 1.8 0.2 1.9 0.2 0.1-0.1-12.8-15.5-28.7-34.4-15.9-18.8-28.9-34.3-29-34.3zm130.1 28l-2.6 0.1c-1.5 0-3.2 0-3.9 0.1-9.8 1.1-16.7 6.5-19.8 15.4-0.3 0.8-0.5 1.5-0.5 1.6 0 0.1 2.4 0.7 3.7 0.9 2.8 0.3 6.4-0.3 9.6-1.6 4.2-1.7 7.9-4.7 10.2-8.2 1.6-2.4 2.6-4.7 3.2-7.7zm58.6 5.8c0 0-6 7.1-13.2 15.8l-13.2 15.8 1.6 0.2c5 0.3 10.7 1.1 15.6 2.1 1.8 0.3 3.4 0.6 3.5 0.6 0.2 0 1.8-5.1 2.6-8.2 2-7.5 2.9-14.3 3.1-21.8 0.1-2.5 0.1-4.5 0-4.5zm-133.4 2.9l-0.4 0.1 0.5 1.6c3.5 10.2 10.3 16.6 19.2 18.1 1.9 0.3 4.7 0.5 6 0.3l1.1-0.1-0.2-1.3c-0.3-3.7-1.9-7.2-4.9-10.8-3.3-4-8.2-6.9-13.2-7.9-2.3-0.5-6.3-0.5-8.1 0zm-61.2 7.2l-0.5-0.5 0.1 1.5c0.5 6.6 2.7 16.3 5.4 23.7 0.8 2.2 2.7 7 2.9 7.1 0 0.1 1-0.3 2.1-0.8 3.9-1.7 9.5-3.6 13.2-4.5 0.7-0.2 1.3-0.4 1.4-0.4 0-0.1-5.4-5.9-12.1-12.9-6.7-7.1-12.3-13-12.5-13.2zm157.7 26.4h-2.4c-2.8 0.1-3.1 0.1-7 0.4-7.4 0.7-15.5 2.2-21.9 4.2-5 1.5-7.3 2.1-11.6 2.7-2.8 0.3-7.7 0.8-9.2 0.8-0.7 0-0.9 0.1-0.9 0.2 1.4 3.2 1.7 4.6 1.7 7.2 0 2.7-0.5 4.7-1.8 7.2l-0.9 1.8h0.9c2.5 0 9.2-0.8 13.1-1.4 1.4-0.3 4.4-1 6.9-1.6 6-1.5 10.1-2.3 15.8-3.1l2.1-0.3 7.3-8.7c3.9-4.7 7.3-8.8 7.5-9zm6.8 0c-0.2 0-2.2 2.2-7.6 8.6-3.9 4.8-7.2 8.8-7.1 8.8 0 0 0.8 0 1.8-0.1 6.6-0.4 17.8-0.3 24.9 0.3 1.5 0.1 2.7 0.2 2.8 0.2 0.3-0.4 3-5.1 4.1-7.2 1.7-3.1 3.8-7.6 3.6-7.8-0.1-0.2-4.7-1-8.2-1.5-4-0.6-7.5-0.9-11.3-1.2-1.4 0-2.8-0.1-3-0.1zm-121.8 2.2c-3.1 0.3-7.2 0.7-7.4 0.7-0.3 0.1 1.1 1.6 7.1 7.9l7.4 7.8h1.4c8.2 0.2 15 1.2 23.1 3.2 6.1 1.5 14.1 2.7 18.8 2.7h1.4l1.4-1.5c2.5-2.6 3.4-4.4 3.6-7 0-0.9-0.1-2-0.2-2.5-0.2-1.1-1.1-3-2-4.3-0.5-0.7-0.8-1-1.1-1-1.2 0-6.8-0.3-9.1-0.5-5.3-0.6-9.8-1.3-15.6-2.7-5.1-1.2-9.6-2-14.8-2.5-2.6-0.2-12-0.4-14-0.3zm-14 1.8c-1.3 0-8.7 2.1-12.1 3.3-2.4 0.9-6.4 2.6-6.4 2.7 0 0 0.6 1.1 1.3 2.3 1.7 3.1 3.7 6.2 5.8 9.2l1.7 2.4 2.4-0.8c4.4-1.4 9.2-2.6 13.9-3.3 2.8-0.4 6.2-0.8 7.1-0.8 0.4 0 0.7-0.1 0.7-0.2 0 0-3.2-3.4-7.1-7.5-3.9-4-7.1-7.3-7.3-7.3zm107.7 21c-3.6 0.6-5.8 1.1-10.9 2.4-7.7 2-14.3 2.8-23.9 3.1l-3.7 0.1-1 1.6c-1.3 1.9-1.8 3.3-1.7 5 0.1 0.9 0.2 1.5 0.6 2.1 0.6 1.2 2.7 3.2 4.3 4.2l1.2 0.8h1.9c6-0.1 14.4-1.2 19.3-2.5 10.7-2.9 16.8-4.1 25.3-5.1 1.8-0.2 3.9-0.3 9.1-0.3h6.8l2.5-2.5c1.4-1.3 3.3-3.4 4.4-4.6 2-2.4 4.7-5.7 4.6-5.8-0.1 0-1.6-0.1-3.5-0.2-12.7-0.6-24.6-0.1-35.3 1.7zm-90.3-0.2c-4.9 0.2-9.1 0.8-14.2 1.8-3.2 0.6-8.4 2-8.7 2.3-0.1 0.1 3.3 3.9 5.6 6.1 1.9 1.8 4.7 4.3 4.8 4.3 0 0 0.8-0.2 1.7-0.5 3.9-1.1 9.4-1.6 14.9-1.3 7.4 0.4 13.6 1.4 23.5 3.9 4.3 1.1 6.5 1.5 9.6 2 2.2 0.3 6.9 0.8 7 0.7 0-0.1-0.3-0.7-0.7-1.5-1-2-1.4-3.5-1.4-5.8 0-1.9 0.4-3.5 1.2-5.4l0.4-1.1-1.4-0.2c-4.9-0.3-10.4-1.2-15.4-2.5-7.3-1.8-12-2.5-18.6-2.8-3.8-0.2-4.5-0.2-8.3 0zm106.1 18.6c-9 0.7-15.6 1.9-25.9 4.6-4.7 1.2-6.4 1.6-10.3 2.2-6.6 0.9-13.1 1.3-19.9 1.1-9.4-0.2-14.9-0.9-24.4-3.2-11.9-2.9-17.9-3.8-25.7-3.6-2.4 0-4.5 0.1-4.8 0.2l-0.6 0.2 2.5 1.6c3.4 2.2 5.8 3.6 9.4 5.5 32.1 16.6 71.2 13.8 100.8-7.1 1-0.7 1.9-1.4 2-1.5 0.1-0.1-1.6-0.1-3.1 0z"/><path class="d" d="m30.8 51v40.1h77.5v27.8h-77.5v37.6h87.3v27.6h-118v-160.2h118v27.1z"/><path class="d" d="m280.1 184.1l-67.2-72.9v72.9h-30.6v-160.2h30.6v81.4l63.7-81.2h37.6l-65.9 82.7 72.2 77.3z"/><path class="d" d="m744.5 184.1l-105.3-95.2v95.2h-30.6v-160h3.3l105.3 96.7v-96.7h30.6v160z"/><path fill-rule="evenodd" class="d" d="m790.5 184.1l81.9-160h3.1l81.9 160h-33.4l-12.5-25.2h-75.5l-12.3 25.2zm60.4-51.9h45.7l-22.8-48.4z"/><path class="d" d="m1108.3 24.1l-76.2 160h-1.8l-75.9-160h33.7l43.1 92.8 43.1-92.8c0 0 34 0 34 0z"/><path class="d" d="m1185.8 184.1h-30.6v-160h30.6z"/></svg>